<svg width="1920" height="130" viewBox="0 0 1920 130" fill="none" xmlns="http://www.w3.org/2000/svg">
<rect y="30" width="1920" height="100" fill="#222222"/>
<rect width="15" height="30" fill="#222222"/>
<rect x="45" width="15" height="30" fill="#222222"/>
<rect x="105" width="15" height="30" fill="#222222"/>
<rect x="165" width="15" height="30" fill="#222222"/>
<rect x="225" width="15" height="30" fill="#222222"/>
<rect x="285" width="15" height="30" fill="#222222"/>
<rect x="345" width="15" height="30" fill="#222222"/>
<rect x="405" width="15" height="30" fill="#222222"/>
<rect x="465" width="15" height="30" fill="#222222"/>
<rect x="525" width="15" height="30" fill="#222222"/>
<rect x="585" width="15" height="30" fill="#222222"/>
<rect x="645" width="15" height="30" fill="#222222"/>
<rect x="705" width="15" height="30" fill="#222222"/>
<rect x="765" width="15" height="30" fill="#222222"/>
<rect x="825" width="15" height="30" fill="#222222"/>
<rect x="885" width="15" height="30" fill="#222222"/>
<rect x="945" width="15" height="30" fill="#222222"/>
<rect x="1005" width="15" height="30" fill="#222222"/>
<rect x="1065" width="15" height="30" fill="#222222"/>
<rect x="1125" width="15" height="30" fill="#222222"/>
<rect x="1185" width="15" height="30" fill="#222222"/>
<rect x="1245" width="15" height="30" fill="#222222"/>
<rect x="1305" width="15" height="30" fill="#222222"/>
<rect x="1365" width="15" height="30" fill="#222222"/>
<rect x="1425" width="15" height="30" fill="#222222"/>
<rect x="1485" width="15" height="30" fill="#222222"/>
<rect x="1545" width="15" height="30" fill="#222222"/>
<rect x="1605" width="15" height="30" fill="#222222"/>
<rect x="1665" width="15" height="30" fill="#222222"/>
<rect x="1725" width="15" height="30" fill="#222222"/>
<rect x="1785" width="15" height="30" fill="#222222"/>
<rect x="1845" width="15" height="30" fill="#222222"/>
<rect x="1905" width="15" height="30" fill="#222222"/>
<rect x="60" width="15" height="30" fill="#222222"/>
<rect x="120" width="15" height="30" fill="#222222"/>
<rect x="180" width="15" height="30" fill="#222222"/>
<rect x="240" width="15" height="30" fill="#222222"/>
<rect x="300" width="15" height="30" fill="#222222"/>
<rect x="360" width="15" height="30" fill="#222222"/>
<rect x="420" width="15" height="30" fill="#222222"/>
<rect x="480" width="15" height="30" fill="#222222"/>
<rect x="540" width="15" height="30" fill="#222222"/>
<rect x="600" width="15" height="30" fill="#222222"/>
<rect x="660" width="15" height="30" fill="#222222"/>
<rect x="720" width="15" height="30" fill="#222222"/>
<rect x="780" width="15" height="30" fill="#222222"/>
<rect x="840" width="15" height="30" fill="#222222"/>
<rect x="900" width="15" height="30" fill="#222222"/>
<rect x="960" width="15" height="30" fill="#222222"/>
<rect x="1020" width="15" height="30" fill="#222222"/>
<rect x="1080" width="15" height="30" fill="#222222"/>
<rect x="1140" width="15" height="30" fill="#222222"/>
<rect x="1200" width="15" height="30" fill="#222222"/>
<rect x="1260" width="15" height="30" fill="#222222"/>
<rect x="1320" width="15" height="30" fill="#222222"/>
<rect x="1380" width="15" height="30" fill="#222222"/>
<rect x="1440" width="15" height="30" fill="#222222"/>
<rect x="1500" width="15" height="30" fill="#222222"/>
<rect x="1560" width="15" height="30" fill="#222222"/>
<rect x="1620" width="15" height="30" fill="#222222"/>
<rect x="1680" width="15" height="30" fill="#222222"/>
<rect x="1740" width="15" height="30" fill="#222222"/>
<rect x="1800" width="15" height="30" fill="#222222"/>
<rect x="1860" width="15" height="30" fill="#222222"/>
</svg>
