<svg width="350" height="350" viewBox="0 0 350 350" fill="none" xmlns="http://www.w3.org/2000/svg">
<path fill-rule="evenodd" clip-rule="evenodd" d="M209.716 9.47819C211.244 12.4413 211.624 16.2359 212.383 23.8252C213.819 38.1903 214.537 45.3729 217.544 49.3137C221.357 54.3127 227.559 56.8816 233.79 56.0434C238.703 55.3825 244.289 50.8116 255.463 41.6698C261.366 36.8401 264.317 34.4253 267.493 33.4107C271.527 32.122 275.891 32.3397 279.776 34.0233C282.835 35.3489 285.532 38.0454 290.925 43.4385L306.561 59.0742C311.954 64.4674 314.651 67.164 315.976 70.2232C317.66 74.1086 317.877 78.4726 316.589 82.5063C315.574 85.6821 313.159 88.6337 308.329 94.5368C299.187 105.71 294.616 111.297 293.956 116.21C293.117 122.441 295.686 128.643 300.685 132.456C304.626 135.463 311.809 136.181 326.174 137.617C333.764 138.376 337.559 138.756 340.522 140.284C344.285 142.225 347.217 145.465 348.774 149.403C350 152.503 350 156.317 350 163.944V186.058C350 193.683 350 197.496 348.775 200.596C347.218 204.535 344.285 207.775 340.521 209.717C337.558 211.244 333.764 211.624 326.176 212.382C311.815 213.818 304.634 214.537 300.694 217.541C295.693 221.355 293.123 227.56 293.963 233.793C294.624 238.704 299.193 244.288 308.332 255.458C313.16 261.359 315.574 264.309 316.589 267.484C317.878 271.519 317.661 275.885 315.976 279.771C314.65 282.829 311.955 285.525 306.564 290.916L290.926 306.554C285.533 311.947 282.836 314.643 279.777 315.969C275.892 317.653 271.527 317.87 267.494 316.582C264.318 315.567 261.366 313.152 255.464 308.322C244.29 299.181 238.703 294.61 233.791 293.949C227.56 293.111 221.358 295.68 217.544 300.679C214.538 304.619 213.82 311.803 212.383 326.171C211.624 333.763 211.244 337.56 209.715 340.524C207.774 344.286 204.535 347.217 200.599 348.773C197.498 350 193.683 350 186.054 350H163.944C156.317 350 152.503 350 149.403 348.774C145.465 347.217 142.225 344.285 140.284 340.522C138.756 337.559 138.376 333.764 137.617 326.175C136.181 311.809 135.463 304.626 132.456 300.685C128.643 295.686 122.441 293.118 116.21 293.956C111.297 294.616 105.71 299.188 94.5363 308.33C88.6331 313.16 85.6812 315.575 82.5052 316.59C78.4717 317.878 74.1079 317.66 70.2226 315.977C67.1633 314.651 64.4666 311.955 59.0731 306.561L43.4379 290.926C38.0446 285.533 35.348 282.836 34.0224 279.777C32.3389 275.892 32.1213 271.528 33.4098 267.494C34.4244 264.318 36.8394 261.366 41.6693 255.463C50.8114 244.29 55.3825 238.703 56.0433 233.79C56.8815 227.559 54.3125 221.357 49.3137 217.544C45.3728 214.537 38.1902 213.819 23.825 212.382C16.2359 211.624 12.4413 211.244 9.47821 209.716C5.71476 207.775 2.78277 204.535 1.22583 200.597C0 197.497 0 193.683 0 186.056V163.946C0 156.317 0 152.502 1.22647 149.401C2.78337 145.465 5.71447 142.226 9.47665 140.285C12.4404 138.756 16.236 138.376 23.8271 137.617C38.1961 136.18 45.3808 135.462 49.3223 132.454C54.3191 128.641 56.8872 122.441 56.0502 116.212C55.3899 111.298 50.8174 105.709 41.6723 94.5318C36.8404 88.6261 34.4244 85.6732 33.4099 82.4959C32.1224 78.4638 32.34 74.1016 34.0223 70.2176C35.3479 67.157 38.0455 64.4593 43.4408 59.064L59.0739 43.431C64.4674 38.0375 67.1641 35.3408 70.2234 34.0152C74.1087 32.3318 78.4725 32.1142 82.506 33.4026C85.682 34.4172 88.6342 36.8326 94.5384 41.6633C105.711 50.8043 111.297 55.3748 116.208 56.0362C122.441 56.8756 128.645 54.3058 132.459 49.3048C135.464 45.3647 136.182 38.1841 137.618 23.8228C138.376 16.2358 138.756 12.4422 140.283 9.47982C142.225 5.71506 145.465 2.78216 149.405 1.22516C152.504 0 156.317 0 163.942 0H186.056C193.683 0 197.497 0 200.597 1.22584C204.535 2.78278 207.775 5.71476 209.716 9.47819ZM175 245C213.66 245 245 213.66 245 175C245 136.34 213.66 105 175 105C136.34 105 105 136.34 105 175C105 213.66 136.34 245 175 245Z" fill="#222222"/>
</svg>
