<svg width="20" height="20" viewBox="0 0 20 20" fill="none" xmlns="http://www.w3.org/2000/svg">
<path fill-rule="evenodd" clip-rule="evenodd" d="M10 0C10.5523 0 11 0.447715 11 1V3C11 3.55228 10.5523 4 10 4C9.44771 4 9 3.55228 9 3V1C9 0.447715 9.44771 0 10 0ZM2.92897 2.92848C3.3195 2.53796 3.95266 2.53796 4.34319 2.92848L5.7574 4.3427C6.14792 4.73322 6.14792 5.36639 5.7574 5.75691C5.36688 6.14744 4.73371 6.14744 4.34319 5.75691L2.92897 4.3427C2.53845 3.95217 2.53845 3.31901 2.92897 2.92848ZM17.0711 2.92864C17.4616 3.31916 17.4616 3.95232 17.0711 4.34285L15.6569 5.75706C15.2664 6.14759 14.6332 6.14759 14.2427 5.75706C13.8522 5.36654 13.8522 4.73337 14.2427 4.34285L15.6569 2.92864C16.0474 2.53811 16.6806 2.53811 17.0711 2.92864ZM5 10C5 7.23858 7.23858 5 10 5C12.7614 5 15 7.23858 15 10C15 12.7614 12.7614 15 10 15C7.23858 15 5 12.7614 5 10ZM0 10C0 9.44771 0.447715 9 1 9H3C3.55228 9 4 9.44771 4 10C4 10.5523 3.55228 11 3 11H1C0.447715 11 0 10.5523 0 10ZM16 10C16 9.44771 16.4477 9 17 9H19C19.5523 9 20 9.44771 20 10C20 10.5523 19.5523 11 19 11H17C16.4477 11 16 10.5523 16 10ZM14.2427 14.2429C14.6332 13.8524 15.2664 13.8524 15.6569 14.2429L17.0711 15.6572C17.4616 16.0477 17.4616 16.6808 17.0711 17.0714C16.6806 17.4619 16.0474 17.4619 15.6569 17.0714L14.2427 15.6572C13.8522 15.2666 13.8522 14.6335 14.2427 14.2429ZM5.7574 14.2431C6.14792 14.6336 6.14792 15.2668 5.7574 15.6573L4.34319 17.0715C3.95266 17.462 3.3195 17.462 2.92897 17.0715C2.53845 16.681 2.53845 16.0478 2.92897 15.6573L4.34319 14.2431C4.73371 13.8526 5.36688 13.8526 5.7574 14.2431ZM10 16C10.5523 16 11 16.4477 11 17V19C11 19.5523 10.5523 20 10 20C9.44771 20 9 19.5523 9 19V17C9 16.4477 9.44771 16 10 16Z" fill="#222222"/>
</svg>
