<svg width="114" height="114" viewBox="0 0 114 114" fill="none" xmlns="http://www.w3.org/2000/svg">
<path d="M57 0C52.288 0 47.4874 0.906342 43.738 2.77622L3.55931 22.7808C1.14631 24.0992 0 26.229 0 28.5236V75.6698C0 83.2824 5.24404 91.6811 12.0714 95.0786L45.3214 111.521C51.9714 114.823 62.0286 114.83 68.6786 111.521L101.929 95.0786C108.813 91.6558 114 83.3458 114 75.6698V28.5236C114 26.229 112.841 23.9091 110.441 22.7808L70.262 2.77622C66.5126 0.906342 61.712 0 57 0ZM49.476 14.0653C53.428 12.1003 60.572 12.1003 64.524 14.0653L93.4167 28.5236L64.524 42.7854C60.572 44.7503 53.428 44.7503 49.476 42.7854C49.0326 42.5635 24.7887 30.6153 20.5833 28.5236L49.476 14.0653ZM12.6667 38.8238C18.506 41.7332 23.389 44.015 29.6907 47.1462C34.9284 49.7451 41.9457 53.2441 43.738 54.0744C46.4867 55.3485 48.3043 55.9887 50.6667 56.4514V100.029L17.613 83.593C15.0924 82.338 12.6667 78.4525 12.6667 75.6698V38.8238ZM101.333 38.8238V75.6698C101.333 78.5158 98.7684 82.5028 96.1907 83.7896L63.3333 100.029V56.4514C65.6957 55.9887 68.1086 55.2471 70.0593 54.2709L101.333 38.8238Z" fill="#2A343D"/>
</svg>
