<svg width="100" height="96" viewBox="0 0 100 96" fill="none" xmlns="http://www.w3.org/2000/svg">
<path fill-rule="evenodd" clip-rule="evenodd" d="M49.9006 11.4601C48.6774 13.5879 47.3127 16.9487 45.2256 22.1399L44.949 22.8279C43.8816 25.4833 42.9402 27.8253 41.9533 29.6985C40.8842 31.7277 39.5743 33.5894 37.5735 35.0735C35.5728 36.5576 33.4086 37.273 31.153 37.71C29.0709 38.1134 26.5518 38.3383 23.6958 38.5933L22.354 38.7132C17.1761 39.1759 13.872 39.4841 11.682 39.9997C11.628 40.0125 11.5758 40.0251 11.5253 40.0375C11.558 40.0779 11.592 40.1195 11.6273 40.1622C13.0599 41.8933 15.5058 44.131 19.3511 47.6214L21.9778 50.0057C23.7348 51.6004 25.2875 53.0096 26.4907 54.3083C27.7912 55.712 28.9281 57.2367 29.6828 59.1631C29.9281 59.7894 30.1321 60.4311 30.2934 61.084C30.7895 63.0922 30.7413 64.9919 30.4894 66.8868C30.2564 68.64 29.8016 70.6846 29.287 72.998L28.9013 74.7324C27.8612 79.4096 27.1808 82.502 26.9337 84.6866C26.918 84.8253 26.9049 84.9548 26.894 85.0755C26.9972 85.0115 27.1073 84.9417 27.2245 84.8655C29.0703 83.6648 31.5348 81.6704 35.2574 78.644L35.4312 78.5026C37.6623 76.6887 39.6077 75.1069 41.343 73.9491C43.1996 72.7104 45.1865 71.6947 47.5667 71.3155C49.1787 71.0587 50.8213 71.0587 52.4333 71.3155C54.8135 71.6947 56.8004 72.7104 58.657 73.9491C60.3923 75.1069 62.3377 76.6887 64.5687 78.5026L64.7426 78.644C68.4652 81.6704 70.9297 83.6648 72.7755 84.8655C72.8927 84.9417 73.0028 85.0115 73.106 85.0755C73.0951 84.9548 73.082 84.8253 73.0663 84.6866C72.8192 82.502 72.1388 79.4096 71.0987 74.7324L70.7131 72.9982C70.1984 70.6847 69.7437 68.6401 69.5106 66.8868C69.2587 64.9919 69.2105 63.0922 69.7066 61.084C69.8679 60.4311 70.0719 59.7894 70.3172 59.1631C71.072 57.2367 72.2088 55.712 73.5093 54.3083C74.7125 53.0097 76.2652 51.6004 78.0221 50.0058L80.6489 47.6214C84.4942 44.131 86.9401 41.8933 88.3727 40.1621C88.408 40.1195 88.442 40.0779 88.4747 40.0375C88.4242 40.0251 88.372 40.0125 88.318 39.9997C86.128 39.4841 82.8239 39.1759 77.646 38.7132L76.3042 38.5933C73.4482 38.3383 70.9291 38.1134 68.847 37.71C66.5914 37.273 64.4272 36.5576 62.4265 35.0735C60.4257 33.5894 59.1158 31.7277 58.0467 29.6985C57.0598 27.8253 56.1184 25.4834 55.051 22.8281L54.7744 22.1399C52.6873 16.9487 51.3226 13.5879 50.0994 11.4601C50.0654 11.401 50.0323 11.3442 50 11.2895C49.9677 11.3442 49.9346 11.401 49.9006 11.4601ZM50.9407 9.98746C50.9407 9.98951 50.9247 10.0049 50.8927 10.0274C50.9246 9.99668 50.9406 9.98541 50.9407 9.98746ZM49.1073 10.0274C49.0753 10.0049 49.0593 9.98951 49.0593 9.98746C49.0594 9.98541 49.0754 9.99668 49.1073 10.0274ZM89.8318 40.5047C89.8301 40.5052 89.8122 40.4954 89.7834 40.4735C89.8192 40.4932 89.8336 40.5041 89.8318 40.5047ZM89.2533 38.9012C89.263 38.8664 89.2713 38.8477 89.2731 38.8471C89.2748 38.8465 89.27 38.8639 89.2533 38.9012ZM10.7269 38.8471C10.7287 38.8477 10.737 38.8664 10.7467 38.9012C10.73 38.8639 10.7252 38.8465 10.7269 38.8471ZM10.2166 40.4735C10.1878 40.4954 10.1699 40.5052 10.1682 40.5047C10.1664 40.5041 10.1808 40.4932 10.2166 40.4735ZM40.9761 6.35302C42.5276 3.6542 45.2237 0 50 0C54.7763 0 57.4724 3.6542 59.0239 6.35302C60.651 9.18341 62.2785 13.2322 64.1736 17.9467L64.5115 18.7871C65.6936 21.7273 66.4421 23.5722 67.1536 24.9226C67.8099 26.1683 68.2362 26.5922 68.565 26.8361C68.8937 27.08 69.4234 27.3652 70.8081 27.6335C72.3091 27.9243 74.2955 28.108 77.458 28.3906L78.96 28.5248C83.6252 28.9413 87.683 29.3036 90.681 30.0094C93.6229 30.7021 97.6167 32.1848 99.0659 36.4837C100.515 40.7825 98.2309 44.3717 96.3064 46.6974C94.3453 49.0673 91.3316 51.8024 87.8668 54.947L85.0916 57.466C83.1454 59.2325 81.9287 60.343 81.0643 61.2759C80.2641 62.1396 80.0217 62.588 79.8995 62.9C79.8177 63.1088 79.7497 63.3227 79.696 63.5403C79.6156 63.8656 79.5546 64.3714 79.7096 65.5374C79.877 66.7968 80.2299 68.404 80.7998 70.9666L81.209 72.8069C82.1652 77.1061 82.9735 80.7401 83.2897 83.5355C83.5739 86.048 83.7618 89.8476 81.2176 92.6739C79.8964 94.1416 78.1792 95.1984 76.2715 95.7178C72.5983 96.7177 69.2794 94.845 67.1564 93.464C64.7946 91.9276 61.9023 89.5761 58.4807 86.7941L58.2436 86.6014C55.7883 84.6053 54.2203 83.3374 52.9379 82.4817C51.7319 81.6771 51.1629 81.5079 50.8111 81.4518C50.2738 81.3662 49.7262 81.3662 49.1889 81.4518C48.8371 81.5079 48.2681 81.6771 47.0621 82.4817C45.7797 83.3374 44.2117 84.6053 41.7564 86.6014L41.5193 86.7942C38.0977 89.5761 35.2054 91.9276 32.8436 93.464C30.7206 94.845 27.4017 96.7177 23.7285 95.7178C21.8208 95.1984 20.1036 94.1416 18.7824 92.6739C16.2382 89.8476 16.4261 86.048 16.7103 83.5355C17.0265 80.7401 17.8348 77.106 18.791 72.8069L19.2003 70.9666C19.7701 68.404 20.123 66.7968 20.2904 65.5374C20.4454 64.3714 20.3844 63.8656 20.304 63.5403C20.2503 63.3227 20.1823 63.1088 20.1005 62.9C19.9783 62.588 19.7359 62.1396 18.9357 61.2759C18.0713 60.343 16.8546 59.2325 14.9084 57.466L12.4275 55.214C12.3291 55.1247 12.231 55.0357 12.1333 54.947C8.66846 51.8024 5.65475 49.0673 3.6936 46.6974C1.7691 44.3717 -0.514984 40.7825 0.934144 36.4837C2.38327 32.1848 6.37707 30.7021 9.31903 30.0094C12.317 29.3036 16.3748 28.9413 21.04 28.5248C21.1716 28.5131 21.3037 28.5013 21.4363 28.4894L22.542 28.3906C25.7045 28.108 27.6909 27.9243 29.1919 27.6335C30.5766 27.3652 31.1063 27.08 31.435 26.8361C31.7638 26.5922 32.1901 26.1684 32.8464 24.9226C33.5579 23.5722 34.3064 21.7273 35.4885 18.7871L35.6769 18.3184C35.7269 18.194 35.7767 18.0701 35.8264 17.9466C37.7215 13.2322 39.349 9.18339 40.9761 6.35302Z" fill="#33363F"/>
</svg>
