<svg width="1230" height="1230" viewBox="0 0 1230 1230" fill="none" xmlns="http://www.w3.org/2000/svg">
<path fill-rule="evenodd" clip-rule="evenodd" d="M746.373 83.7274C743.706 57.0572 742.372 43.722 737.001 33.309C730.18 20.0833 718.794 9.7795 704.956 4.30794C694.06 0 680.658 0 653.854 0H576.138C549.342 0 535.943 0 525.05 4.30556C511.207 9.7773 499.818 20.0844 492.996 33.3148C487.627 43.7255 486.294 57.0571 483.628 83.7203C478.581 134.19 476.057 159.424 465.498 173.271C452.095 190.846 430.292 199.877 408.387 196.927C391.129 194.603 371.498 178.541 332.235 146.417L332.235 146.417C311.486 129.44 301.111 120.952 289.95 117.386C275.775 112.858 260.439 113.623 246.785 119.539C236.034 124.198 226.557 133.675 207.603 152.629L207.603 152.629L152.664 207.568C133.703 226.529 124.223 236.009 119.564 246.765C113.652 260.414 112.887 275.744 117.412 289.914C120.977 301.08 129.468 311.457 146.449 332.212C178.587 371.492 194.656 391.132 196.976 408.401C199.918 430.293 190.893 452.082 173.333 465.482C159.481 476.052 134.232 478.577 83.7362 483.626L83.7353 483.626C57.0578 486.294 43.719 487.628 33.3037 493.001C20.0823 499.822 9.78156 511.204 4.31017 525.039C0 535.937 0 549.342 0 576.153V653.854C0 680.658 0 694.06 4.3079 704.955C9.77946 718.794 20.0833 730.18 33.3091 737.001C43.722 742.372 57.0571 743.706 83.7269 746.373L83.728 746.373C134.211 751.421 159.453 753.945 173.302 764.51C190.87 777.912 199.898 799.707 196.952 821.606C194.63 838.869 178.566 858.503 146.438 897.771C129.464 918.516 120.977 928.889 117.412 940.05C112.883 954.226 113.648 969.562 119.565 983.216C124.223 993.967 133.7 1003.44 152.653 1022.4L207.6 1077.34C226.554 1096.3 236.031 1105.78 246.782 1110.43C260.436 1116.35 275.772 1117.11 289.947 1112.59C301.108 1109.02 311.482 1100.53 332.228 1083.56L332.228 1083.56C371.497 1051.43 391.131 1035.37 408.395 1033.04C430.293 1030.1 452.087 1039.13 465.488 1056.69C476.054 1070.54 478.578 1095.79 483.627 1146.27C486.294 1172.94 487.628 1186.28 492.999 1196.69C499.82 1209.92 511.205 1220.22 525.044 1225.69C535.94 1230 549.342 1230 576.147 1230H653.845C680.657 1230 694.064 1230 704.962 1225.69C718.796 1220.22 730.177 1209.92 736.998 1196.7C742.372 1186.28 743.706 1172.94 746.374 1146.26C751.423 1095.77 753.948 1070.52 764.513 1056.67C777.914 1039.1 799.71 1030.07 821.609 1033.02C838.872 1035.34 858.506 1051.41 897.772 1083.53C918.516 1100.51 928.889 1108.99 940.049 1112.56C954.225 1117.09 969.562 1116.32 983.217 1110.4C993.967 1105.75 1003.44 1096.27 1022.4 1077.32L1077.35 1022.36C1096.3 1003.42 1105.77 993.942 1110.43 983.196C1116.35 969.537 1117.12 954.194 1112.58 940.014C1109.02 928.858 1100.53 918.489 1083.57 897.752C1051.45 858.499 1035.39 838.872 1033.07 821.616C1030.12 799.71 1039.15 777.904 1056.73 764.501C1070.57 753.943 1095.81 751.419 1146.28 746.372C1172.94 743.706 1186.28 742.372 1196.69 737.004C1209.92 730.182 1220.22 718.793 1225.69 704.951C1230 694.057 1230 680.658 1230 653.861V576.147C1230 549.342 1230 535.94 1225.69 525.043C1220.22 511.205 1209.92 499.82 1196.69 492.999C1186.28 487.628 1172.94 486.294 1146.27 483.627C1095.79 478.578 1070.54 476.054 1056.69 465.489C1039.13 452.087 1030.1 430.292 1033.04 408.394C1035.37 391.13 1051.43 371.497 1083.56 332.229L1083.56 332.227C1100.53 311.483 1109.02 301.111 1112.58 289.951C1117.11 275.775 1116.35 260.439 1110.43 246.784C1105.77 236.033 1096.3 226.557 1077.34 207.604L1022.39 152.655C1003.44 133.702 993.964 124.226 983.214 119.568C969.559 113.651 954.222 112.886 940.047 117.415C928.886 120.98 918.514 129.467 897.769 146.44L897.768 146.44C858.502 178.567 838.869 194.63 821.606 196.952C799.708 199.898 777.912 190.87 764.51 173.302C753.945 159.453 751.421 134.212 746.373 83.7285L746.373 83.7274ZM861 615C861 750.862 750.862 861 615 861C479.138 861 369 750.862 369 615C369 479.138 479.138 369 615 369C750.862 369 861 479.138 861 615ZM615 946.496C798.08 946.496 946.496 798.08 946.496 615C946.496 431.92 798.08 283.504 615 283.504C431.92 283.504 283.504 431.92 283.504 615C283.504 798.08 431.92 946.496 615 946.496Z" fill="#D9D9D9" style="mix-blend-mode:plus-darker"/>
</svg>
