<svg width="30" height="18" viewBox="0 0 30 18" fill="none" xmlns="http://www.w3.org/2000/svg">
<path d="M1.5 0C0.672 0 0 0.644848 0 1.43939C0 2.23394 0.672 2.87879 1.5 2.87879H28.5C29.328 2.87879 30 2.23394 30 1.43939C30 0.644848 29.328 0 28.5 0H1.5ZM1.5 7.19697C0.672 7.19697 0 7.84182 0 8.63636C0 9.43091 0.672 10.0758 1.5 10.0758H28.5C29.328 10.0758 30 9.43091 30 8.63636C30 7.84182 29.328 7.19697 28.5 7.19697H1.5ZM1.5 14.3939C0.672 14.3939 0 15.0388 0 15.8333C0 16.6279 0.672 17.2727 1.5 17.2727H28.5C29.328 17.2727 30 16.6279 30 15.8333C30 15.0388 29.328 14.3939 28.5 14.3939H1.5Z" fill="#2A343D"/>
</svg>
