<svg width="16" height="14" viewBox="0 0 16 14" fill="none" xmlns="http://www.w3.org/2000/svg">
<path d="M8.62478 0.00988224C8.74901 0.00332171 8.87409 0 8.99995 0C12.8659 0 16 3.13401 16 7C16 10.866 12.8659 14 8.99995 14C7.67308 14 6.43244 13.6308 5.37513 12.9896C9.06669 12.7946 12 9.73959 12 5.99946C12 3.46034 10.6481 1.23697 8.62478 0.00988224Z" fill="#222222"/>
<path d="M2.40001 5.2C2.50138 5.50411 2.55207 5.65618 2.60276 5.7225C2.80289 5.98431 3.19713 5.98431 3.39725 5.7225C3.44795 5.65618 3.49864 5.50412 3.60001 5.2C3.68178 4.95468 3.72267 4.83201 3.77556 4.72099C3.97291 4.30672 4.30672 3.97291 4.721 3.77555C4.83202 3.72266 4.95468 3.68177 5.2 3.6C5.50412 3.49863 5.65618 3.44794 5.72251 3.39724C5.98432 3.19712 5.98432 2.80288 5.72251 2.60276C5.65618 2.55206 5.50412 2.50137 5.20001 2.4C4.95469 2.31823 4.83202 2.27734 4.721 2.22445C4.30672 2.02709 3.97291 1.69329 3.77556 1.27901C3.72267 1.16799 3.68178 1.04532 3.60001 0.8C3.49864 0.495883 3.44795 0.343825 3.39725 0.277497C3.19713 0.015686 2.80289 0.015686 2.60276 0.277497C2.55207 0.343825 2.50138 0.495883 2.40001 0.8C2.31823 1.04532 2.27735 1.16799 2.22445 1.27901C2.0271 1.69329 1.69329 2.02709 1.27902 2.22445C1.16799 2.27734 1.04533 2.31823 0.800007 2.4C0.49589 2.50137 0.343832 2.55206 0.277505 2.60276C0.0156934 2.80288 0.0156934 3.19712 0.277505 3.39724C0.343832 3.44794 0.49589 3.49863 0.800007 3.6C1.04533 3.68177 1.16799 3.72266 1.27902 3.77555C1.69329 3.97291 2.0271 4.30672 2.22445 4.72099C2.27735 4.83201 2.31823 4.95468 2.40001 5.2Z" fill="#222222"/>
</svg>
