<svg width="60" height="54" viewBox="0 0 60 54" fill="none" xmlns="http://www.w3.org/2000/svg">
<path d="M2.4499 33.007C0.816635 30.0709 7.00599e-08 28.6028 0 27C-7.00599e-08 25.3972 0.816635 23.9291 2.4499 20.993L6.61796 13.5L11.0228 6.14378C12.7489 3.26121 13.6119 1.81993 15 1.01852C16.3881 0.217102 18.0677 0.190312 21.4271 0.136733L30 0L38.5729 0.136732C41.9323 0.190311 43.6119 0.217101 45 1.01852C46.3881 1.81993 47.2511 3.26121 48.9772 6.14378L53.382 13.5L57.5501 20.993C59.1834 23.9291 60 25.3972 60 27C60 28.6028 59.1834 30.0709 57.5501 33.007L53.382 40.5L48.9772 47.8562C47.2511 50.7388 46.3881 52.1801 45 52.9815C43.6119 53.7829 41.9323 53.8097 38.5729 53.8633L30 54L21.4271 53.8633C18.0677 53.8097 16.3881 53.7829 15 52.9815C13.6119 52.1801 12.7489 50.7388 11.0228 47.8562L6.61796 40.5L2.4499 33.007Z" fill="#D9D9D9"/>
</svg>
