<svg width="30" height="30" viewBox="0 0 30 30" fill="none" xmlns="http://www.w3.org/2000/svg">
<path d="M0.588131 9.67364C0 10.7891 0 12.0582 0 14.5962V22.5228C0 26.0476 0 27.81 1.25526 28.905C2.39429 29.8986 4.16325 29.9906 7.5 29.9991V20.6536C7.5 18.5888 9.41878 16.915 11.7857 16.915H18.2143C20.5812 16.915 22.5 18.5888 22.5 20.6536V29.9991C25.8368 29.9906 27.6057 29.8986 28.7447 28.905C30 27.81 30 26.0476 30 22.5228V14.5962C30 12.0582 30 10.7891 29.4119 9.67364C28.8237 8.55816 27.7192 7.73228 25.5102 6.08054L23.3673 4.47828C19.3745 1.49276 17.3781 0 15 0C12.6219 0 10.6255 1.49276 6.63268 4.47828L4.48983 6.08054C2.28078 7.73228 1.17626 8.55816 0.588131 9.67364Z" fill="#222222"/>
<path d="M18.2143 30V20.6536H11.7857V30H18.2143Z" fill="#222222"/>
</svg>
