<svg width="24" height="24" viewBox="0 0 24 24" fill="none" xmlns="http://www.w3.org/2000/svg">
<path d="M4.99434 3.90637C4.73844 3.90637 4.47084 3.99238 4.27554 4.18738C3.88504 4.57838 3.88504 5.23437 4.27554 5.62537L10.5568 11.9064L4.27554 18.1874C3.88504 18.5784 3.88504 19.2344 4.27554 19.6254C4.66614 20.0154 5.32254 20.0154 5.71314 19.6254L11.9943 13.3444L18.2755 19.6254C18.6661 20.0154 19.3225 20.0154 19.7131 19.6254C20.1036 19.2344 20.1036 18.5784 19.7131 18.1874L13.4318 11.9064L19.7131 5.62537C20.1036 5.23437 20.1036 4.57838 19.7131 4.18738C19.5178 3.99238 19.2501 3.90637 18.9943 3.90637C18.7384 3.90637 18.4709 3.99238 18.2755 4.18738L11.9943 10.4684L5.71314 4.18738C5.51784 3.99238 5.25024 3.90637 4.99434 3.90637Z" fill="#D9D9D9"/>
</svg>
